{"title":"Max Manus Man of War (2008)  (AUTHENTIC U.K. EDITION  SUBS)","uid":4981027,"size":741363018,"categoryP":"video","categoryS":"movies","magnet":"?xt=urn:btih:f9bb7b7670c6e0884ca8b686e8f0afe19a68119d&amp;dn=Max+Manus+Man+of+War+%282008%29++%28AUTHENTIC+U.K.+EDITION++SUBS%29&amp;tr=udp%3A%2F%2Ftracker.openbittorrent.com%3A80&amp;tr=udp%3A%2F%2Fopen.demonii.com%3A1337&amp;tr=udp%3A%2F%2Ftracker.coppersurfer.tk%3A6969&amp;tr=udp%3A%2F%2Fexodus.desync.com%3A6969","seeders":2,"leechers":0,"uploader":"Kuthumi","files":-1,"time":1246306884,"description":"Max Manus Man of War (2008) (AUTHENTIC U.K.EDITION)\n\naka:\nMan of War (2008)\nMan of War Max Manus (2008)\nMax Manus: Man of War (2008) &lt;a href=&quot;\nhttp://www.imdb.com/title/tt1029235/&quot; rel=&quot;nofollow&quot; target=&quot;_NEW&quot;&gt;\nhttp://www.imdb.com/title/tt1029235/&lt;/a&gt;\nhttp://www.manofwar.co.uk/\n\nWith official English subtitles hardcoded\n\nExplosive story of the famous Norwegian war hero is finally available with proper English subtitles in this authentic U.K. edition DVD. Some versions with home-made subtitles have been available on the net, but alas full of errors and misunderstandings.\n\n&quot;Awesome! Epic, explosive &amp; utterly mesmerising&quot; (Talksport Magazine)\n&quot;Visually stunning, powerful &amp; uniquely moving&quot; (Blockbuster.co.uk)\n\nIn my opinion, this is the best Norwegian film made during the last decades. If you like it, I hope you will show your support by buying or renting the DVD, as I did myself. It has valuable extras, among then an exclusive documentary.\n\nEnglish is spoken in several scenes in the film, as well as German and Swedish, but the overall dialogue is in original Norwegian. No plans exist for an English-dubbed version of this movie.\n\nMy ripping procedure now produces decent quality for such a long film compressed into just 700 MiB. I enclose a sample for ye weak in faith. \n\nA rip of the Nordic edition of this DVD with optional Nordic subtitles (DK, Fi, No, Se) is found at &lt;a href=&quot;\nhttp://thepiratebay.se/torrent/4930950/Max_Manus_(2008)_DVDrip_(Norwegian___opt.SUBS_DK_FI_NO_SE)&quot; rel=&quot;nofollow&quot; target=&quot;_NEW&quot;&gt;\nhttp://thepiratebay.se/torrent/4930950/Max_Manus_(2008)_DVDrip_(Norwegian___opt.SUBS_DK_FI_NO_SE)&lt;/a&gt;\n\nWidescreen DVDrip XviD 2-pass 704x288, great stereo sound AC3.\nRuns well in both my standalone DivX players.\n\n\nFormat/Info                      : Audio Video Interleave\nFile size                        : 700 MiB\nDuration                         : 1h 53mn\nOveral bit rate                  : 865 Kbps\n\nVideo\nFormat                           : MPEG-4 Visual\nFormat profile                   : Streaming Video@L1\nFormat settings, BVOP            : Yes\nFormat settings, QPel            : No\nFormat settings, GMC             : No warppoints\nFormat settings, Matrix          : Default\nMuxing mode                      : Packet Bitstream\nCodec ID                         : XVID\nCodec ID/Hint                    : XviD\nDuration                         : 1h 53mn\nBit rate                         : 727 Kbps\nWidth                            : 704 pixels\nHeight                           : 288 pixels\nDisplay aspect ratio             : 2.444\nFrame rate                       : 25.000 fps\nResolution                       : 8 bits\nColorimetry                      : 4:2:0\nScan type                        : Progressive\nBits/(Pixel*Frame)               : 0.143\nStream size                      : 588 MiB\nWriting library                  : XviD 1.2.0.dev47 (UTC 2006-11-01)\n\nAudio\nFormat                           : MPEG Audio\nFormat version                   : Version 1\nFormat profile                   : Layer 3\nCodec ID                         : 55\nCodec ID/Hint                    : MP3\nDuration                         : 1h 53mn\nBit rate mode                    : Constant\nBit rate                         : 128 Kbps\nMinimum bit rate                 : 128 Kbps\nChannel(s)                       : 2 channels\nSampling rate                    : 48.0 KHz\nResolution                       : 16 bits\nStream size                      : 104 MiB\nWriting library                  : LAME3.97 \nEncoding settings                : CBR\n\nSource: PAL retail (U.K. edition) 7.3 Giga (note that PAL/NTSC will give no problems for avi files).\n","torrent":{"xt":"urn:btih:f9bb7b7670c6e0884ca8b686e8f0afe19a68119d","amp;dn":"Max+Manus+Man+of+War+%282008%29++%28AUTHENTIC+U.K.+EDITION++SUBS%29","amp;tr":["udp%3A%2F%2Ftracker.openbittorrent.com%3A80","udp%3A%2F%2Fopen.demonii.com%3A1337","udp%3A%2F%2Ftracker.coppersurfer.tk%3A6969","udp%3A%2F%2Fexodus.desync.com%3A6969"],"infoHash":"f9bb7b7670c6e0884ca8b686e8f0afe19a68119d","infoHashBuffer":{"type":"Buffer","data":[249,187,123,118,112,198,224,136,76,168,182,134,232,240,175,225,154,104,17,157]},"announce":[],"urlList":[]}}